<?xml version="1.0" encoding="UTF-8"?>
<svg width="820" height="420" viewBox="0 0 820 420"
     xmlns="http://www.w3.org/2000/svg"
     xmlns:xlink="http://www.w3.org/1999/xlink">
  <defs>
    <style>
      @import url('https://fonts.googleapis.com/css2?family=Caveat:wght@400;600;700&amp;display=swap');
      text { font-family: 'Caveat', 'Comic Sans MS', cursive; }
    </style>
    <!-- Slight hand-drawn roughness filter -->
    <filter id="rough" x="-5%" y="-5%" width="110%" height="110%">
      <feTurbulence type="fractalNoise" baseFrequency="0.02" numOctaves="3"
                    seed="2" result="noise"/>
      <feDisplacementMap in="SourceGraphic" in2="noise" scale="1.2"
                         xChannelSelector="R" yChannelSelector="G"/>
    </filter>
    <!-- Arrow marker – dark -->
    <marker id="arr" markerWidth="10" markerHeight="7"
            refX="9" refY="3.5" orient="auto">
      <polygon points="0 0, 10 3.5, 0 7" fill="#374151"/>
    </marker>
    <!-- Arrow marker – colored -->
    <marker id="arr-color" markerWidth="10" markerHeight="7"
            refX="9" refY="3.5" orient="auto">
      <polygon points="0 0, 10 3.5, 0 7" fill="#1d4ed8"/>
    </marker>
    <!-- Arrow marker – white (for dark backgrounds) -->
    <marker id="arr-white" markerWidth="10" markerHeight="7"
            refX="9" refY="3.5" orient="auto">
      <polygon points="0 0, 10 3.5, 0 7" fill="#ffffff"/>
    </marker>
  </defs>
  <!-- Background -->
  <rect width="820" height="420" fill="#fafaf8" rx="8"/>
<text x="410" y="34" text-anchor="middle"
               font-size="17" font-weight="700" fill="#1e1e2e">Kubernetes Cluster Architecture</text>
  <line x1="40" y1="44" x2="780" y2="44" stroke="#e5e3de" stroke-width="1"/>
  <g filter="url(#rough)">
    <rect x="20" y="60" width="460" height="160" rx="8" ry="8"
          fill="none" stroke="#1d4ed8" stroke-width="1.5" stroke-dasharray="6 3"
          opacity="0.6"/>
  </g>
  <rect x="30" y="50" width="120" height="20"
        fill="#fafaf8" rx="3"/>
  <text x="38" y="65" font-size="12" fill="#1d4ed8"
        font-weight="600">Control Plane</text>
  <g filter="url(#rough)">
    <rect x="40" y="90" width="130" height="50" rx="6" ry="6"
          fill="#dbeafe" stroke="#1d4ed8" stroke-width="2"/>
  </g>
  <text x="105" y="120" text-anchor="middle"
        font-size="14" font-weight="600" fill="#1e3a5f">API Server</text>
  
  <g filter="url(#rough)">
    <rect x="200" y="90" width="110" height="50" rx="6" ry="6"
          fill="#fef9c3" stroke="#854d0e" stroke-width="2"/>
  </g>
  <text x="255" y="107" text-anchor="middle"
        font-size="14" font-weight="600" fill="#7c2d12">etcd</text>
  <text x="255" y="129" text-anchor="middle"
        font-size="11" fill="#7c2d12" opacity="0.7">cluster state</text>
  <g filter="url(#rough)">
    <rect x="330" y="90" width="130" height="50" rx="6" ry="6"
          fill="#ede9fe" stroke="#5b21b6" stroke-width="2"/>
  </g>
  <text x="395" y="120" text-anchor="middle"
        font-size="14" font-weight="600" fill="#4c1d95">Scheduler</text>
  
  <g filter="url(#rough)">
    <rect x="40" y="160" width="160" height="50" rx="6" ry="6"
          fill="#dbeafe" stroke="#1d4ed8" stroke-width="2"/>
  </g>
  <text x="120" y="190" text-anchor="middle"
        font-size="14" font-weight="600" fill="#1e3a5f">Controller Mgr</text>
  
  <g filter="url(#rough)">
    <rect x="220" y="160" width="240" height="50" rx="6" ry="6"
          fill="#f3f4f6" stroke="#374151" stroke-width="2"/>
  </g>
  <text x="340" y="190" text-anchor="middle"
        font-size="14" font-weight="600" fill="#1f2937">Cloud Controller</text>
  
  <g filter="url(#rough)">
    <rect x="20" y="250" width="770" height="150" rx="8" ry="8"
          fill="none" stroke="#065f46" stroke-width="1.5" stroke-dasharray="6 3"
          opacity="0.6"/>
  </g>
  <rect x="30" y="240" width="112" height="20"
        fill="#fafaf8" rx="3"/>
  <text x="38" y="255" font-size="12" fill="#065f46"
        font-weight="600">Worker Nodes</text>
  <g filter="url(#rough)">
    <rect x="40" y="275" width="230" height="100" rx="6" ry="6"
          fill="#d1fae5" stroke="#065f46" stroke-width="2"/>
  </g>
  <text x="155" y="330" text-anchor="middle"
        font-size="14" font-weight="600" fill="#064e3b">Node 1</text>
  
  <g filter="url(#rough)">
    <rect x="40" y="285" width="100" height="40" rx="6" ry="6"
          fill="#ccfbf1" stroke="#0f766e" stroke-width="2"/>
  </g>
  <text x="90" y="310" text-anchor="middle"
        font-size="14" font-weight="600" fill="#134e4a">Pod A</text>
  
  <g filter="url(#rough)">
    <rect x="155" y="285" width="100" height="40" rx="6" ry="6"
          fill="#ccfbf1" stroke="#0f766e" stroke-width="2"/>
  </g>
  <text x="205" y="310" text-anchor="middle"
        font-size="14" font-weight="600" fill="#134e4a">Pod B</text>
  
  <g filter="url(#rough)">
    <rect x="300" y="275" width="230" height="100" rx="6" ry="6"
          fill="#d1fae5" stroke="#065f46" stroke-width="2"/>
  </g>
  <text x="415" y="330" text-anchor="middle"
        font-size="14" font-weight="600" fill="#064e3b">Node 2</text>
  
  <g filter="url(#rough)">
    <rect x="300" y="285" width="100" height="40" rx="6" ry="6"
          fill="#ccfbf1" stroke="#0f766e" stroke-width="2"/>
  </g>
  <text x="350" y="310" text-anchor="middle"
        font-size="14" font-weight="600" fill="#134e4a">Pod C</text>
  
  <g filter="url(#rough)">
    <rect x="415" y="285" width="100" height="40" rx="6" ry="6"
          fill="#ccfbf1" stroke="#0f766e" stroke-width="2"/>
  </g>
  <text x="465" y="310" text-anchor="middle"
        font-size="14" font-weight="600" fill="#134e4a">Pod D</text>
  
  <g filter="url(#rough)">
    <rect x="560" y="275" width="220" height="100" rx="6" ry="6"
          fill="#d1fae5" stroke="#065f46" stroke-width="2"/>
  </g>
  <text x="670" y="330" text-anchor="middle"
        font-size="14" font-weight="600" fill="#064e3b">Node 3</text>
  
  <g filter="url(#rough)">
    <rect x="565" y="285" width="100" height="40" rx="6" ry="6"
          fill="#ccfbf1" stroke="#0f766e" stroke-width="2"/>
  </g>
  <text x="615" y="310" text-anchor="middle"
        font-size="14" font-weight="600" fill="#134e4a">Pod E</text>
  
  <g filter="url(#rough)">
    <rect x="670" y="285" width="100" height="40" rx="6" ry="6"
          fill="#ccfbf1" stroke="#0f766e" stroke-width="2"/>
  </g>
  <text x="720" y="310" text-anchor="middle"
        font-size="14" font-weight="600" fill="#134e4a">Pod F</text>
  
  <g filter="url(#rough)">
    <rect x="530" y="90" width="110" height="50" rx="6" ry="6"
          fill="#ffedd5" stroke="#9a3412" stroke-width="2"/>
  </g>
  <text x="585" y="120" text-anchor="middle"
        font-size="14" font-weight="600" fill="#7c2d12">kubectl</text>
  
  <line x1="530" y1="115" x2="172" y2="115"
        stroke="#374151" stroke-width="1.8" 
        marker-end="url(#arr)"/>
  <rect x="312.5" y="103" width="85" height="18"
                   fill="#fafaf8" rx="3"/>
    <text x="351" y="117" text-anchor="middle" font-size="11" fill="#6b7280">apply / get</text>
  <line x1="172" y1="108" x2="198" y2="108"
        stroke="#374151" stroke-width="1.8" 
        marker-end="url(#arr)"/>
  
  <line x1="172" y1="122" x2="328" y2="122"
        stroke="#374151" stroke-width="1.8" 
        marker-end="url(#arr)"/>
  
  <line x1="105" y1="140" x2="105" y2="158"
        stroke="#374151" stroke-width="1.8" 
        marker-end="url(#arr)"/>
  
  <line x1="105" y1="210" x2="155" y2="273"
        stroke="#374151" stroke-width="1.8" 
        marker-end="url(#arr)"/>
  <rect x="102" y="229.5" width="64" height="18"
                   fill="#fafaf8" rx="3"/>
    <text x="130" y="243.5" text-anchor="middle" font-size="11" fill="#6b7280">schedule</text></svg>