<?xml version="1.0" encoding="UTF-8"?>
<svg width="820" height="420" viewBox="0 0 820 420"
     xmlns="http://www.w3.org/2000/svg"
     xmlns:xlink="http://www.w3.org/1999/xlink">
  <defs>
    <style>
      @import url('https://fonts.googleapis.com/css2?family=Caveat:wght@400;600;700&amp;display=swap');
      text { font-family: 'Caveat', 'Comic Sans MS', cursive; }
    </style>
    <!-- Slight hand-drawn roughness filter -->
    <filter id="rough" x="-5%" y="-5%" width="110%" height="110%">
      <feTurbulence type="fractalNoise" baseFrequency="0.02" numOctaves="3"
                    seed="2" result="noise"/>
      <feDisplacementMap in="SourceGraphic" in2="noise" scale="1.2"
                         xChannelSelector="R" yChannelSelector="G"/>
    </filter>
    <!-- Arrow marker – dark -->
    <marker id="arr" markerWidth="10" markerHeight="7"
            refX="9" refY="3.5" orient="auto">
      <polygon points="0 0, 10 3.5, 0 7" fill="#374151"/>
    </marker>
    <!-- Arrow marker – colored -->
    <marker id="arr-color" markerWidth="10" markerHeight="7"
            refX="9" refY="3.5" orient="auto">
      <polygon points="0 0, 10 3.5, 0 7" fill="#1d4ed8"/>
    </marker>
    <!-- Arrow marker – white (for dark backgrounds) -->
    <marker id="arr-white" markerWidth="10" markerHeight="7"
            refX="9" refY="3.5" orient="auto">
      <polygon points="0 0, 10 3.5, 0 7" fill="#ffffff"/>
    </marker>
  </defs>
  <!-- Background -->
  <rect width="820" height="420" fill="#fafaf8" rx="8"/>
<text x="410" y="34" text-anchor="middle"
               font-size="17" font-weight="700" fill="#1e1e2e">Load Balancing Architecture</text>
  <line x1="40" y1="44" x2="780" y2="44" stroke="#e5e3de" stroke-width="1"/>
  <g filter="url(#rough)">
    <rect x="20" y="155" width="100" height="50" rx="6" ry="6"
          fill="#ffffff" stroke="#1e1e2e" stroke-width="2"/>
  </g>
  <text x="70" y="185" text-anchor="middle"
        font-size="14" font-weight="600" fill="#1e1e2e">Client 1</text>
  
  <g filter="url(#rough)">
    <rect x="20" y="225" width="100" height="50" rx="6" ry="6"
          fill="#ffffff" stroke="#1e1e2e" stroke-width="2"/>
  </g>
  <text x="70" y="255" text-anchor="middle"
        font-size="14" font-weight="600" fill="#1e1e2e">Client 2</text>
  
  <g filter="url(#rough)">
    <rect x="20" y="295" width="100" height="50" rx="6" ry="6"
          fill="#ffffff" stroke="#1e1e2e" stroke-width="2"/>
  </g>
  <text x="70" y="325" text-anchor="middle"
        font-size="14" font-weight="600" fill="#1e1e2e">Client 3</text>
  
  <g filter="url(#rough)">
    <rect x="185" y="185" width="140" height="90" rx="6" ry="6"
          fill="#dbeafe" stroke="#1d4ed8" stroke-width="2"/>
  </g>
  <text x="255" y="222" text-anchor="middle"
        font-size="14" font-weight="600" fill="#1e3a5f">L7 Load
Balancer</text>
  <text x="255" y="244" text-anchor="middle"
        font-size="11" fill="#1e3a5f" opacity="0.7">NGINX / HAProxy</text>
  <g filter="url(#rough)">
    <polygon points="255,300 325,330 255,360 185,330"
             fill="#ffedd5" stroke="#9a3412" stroke-width="2"/>
  </g>
  <text x="255" y="335" text-anchor="middle"
        font-size="13" font-weight="600" fill="#7c2d12">Health
Check</text>
  <g filter="url(#rough)">
    <rect x="420" y="80" width="130" height="50" rx="6" ry="6"
          fill="#d1fae5" stroke="#065f46" stroke-width="2"/>
  </g>
  <text x="485" y="97" text-anchor="middle"
        font-size="14" font-weight="600" fill="#064e3b">Server 1</text>
  <text x="485" y="119" text-anchor="middle"
        font-size="11" fill="#064e3b" opacity="0.7">weight: 2</text>
  <g filter="url(#rough)">
    <rect x="420" y="170" width="130" height="50" rx="6" ry="6"
          fill="#d1fae5" stroke="#065f46" stroke-width="2"/>
  </g>
  <text x="485" y="187" text-anchor="middle"
        font-size="14" font-weight="600" fill="#064e3b">Server 2</text>
  <text x="485" y="209" text-anchor="middle"
        font-size="11" fill="#064e3b" opacity="0.7">weight: 1</text>
  <g filter="url(#rough)">
    <rect x="420" y="260" width="130" height="50" rx="6" ry="6"
          fill="#d1fae5" stroke="#065f46" stroke-width="2"/>
  </g>
  <text x="485" y="277" text-anchor="middle"
        font-size="14" font-weight="600" fill="#064e3b">Server 3</text>
  <text x="485" y="299" text-anchor="middle"
        font-size="11" fill="#064e3b" opacity="0.7">weight: 1</text>
  <g filter="url(#rough)">
    <rect x="420" y="350" width="130" height="50" rx="6" ry="6"
          fill="#fee2e2" stroke="#991b1b" stroke-width="2"/>
  </g>
  <text x="485" y="367" text-anchor="middle"
        font-size="14" font-weight="600" fill="#7f1d1d">Server 4</text>
  <text x="485" y="389" text-anchor="middle"
        font-size="11" fill="#7f1d1d" opacity="0.7">unhealthy</text>
  <g filter="url(#rough)">
    <path d="M 620 90
             a 45 10 0 0 1 90 0
             l 0 50
             a 45 10 0 0 1 -90 0
             Z"
          fill="#fef9c3" stroke="#854d0e" stroke-width="2"/>
    <ellipse cx="665" cy="90" rx="45" ry="10"
             fill="#fef9c3" stroke="#854d0e" stroke-width="2"/>
  </g>
  <text x="665" y="120" text-anchor="middle"
        font-size="13" font-weight="600" fill="#7c2d12">DB Primary</text>
  <g filter="url(#rough)">
    <path d="M 620 180
             a 45 10 0 0 1 90 0
             l 0 50
             a 45 10 0 0 1 -90 0
             Z"
          fill="#f3f4f6" stroke="#374151" stroke-width="2"/>
    <ellipse cx="665" cy="180" rx="45" ry="10"
             fill="#f3f4f6" stroke="#374151" stroke-width="2"/>
  </g>
  <text x="665" y="210" text-anchor="middle"
        font-size="13" font-weight="600" fill="#1f2937">DB Replica</text>
  <line x1="120" y1="180" x2="183" y2="230"
        stroke="#374151" stroke-width="1.8" 
        marker-end="url(#arr)"/>
  
  <line x1="120" y1="250" x2="183" y2="230"
        stroke="#374151" stroke-width="1.8" 
        marker-end="url(#arr)"/>
  
  <line x1="120" y1="320" x2="183" y2="230"
        stroke="#374151" stroke-width="1.8" 
        marker-end="url(#arr)"/>
  
  <line x1="325" y1="230" x2="418" y2="105"
        stroke="#374151" stroke-width="1.8" 
        marker-end="url(#arr)"/>
  
  <line x1="325" y1="230" x2="418" y2="195"
        stroke="#374151" stroke-width="1.8" 
        marker-end="url(#arr)"/>
  
  <line x1="325" y1="230" x2="418" y2="285"
        stroke="#374151" stroke-width="1.8" 
        marker-end="url(#arr)"/>
  
  <line x1="325" y1="230" x2="418" y2="375"
        stroke="#374151" stroke-width="1.8" stroke-dasharray="6 4"
        marker-end="url(#arr)"/>
  
  <path d="M 255 330 Q 337.5 322.5 420 375"
        fill="none" stroke="#374151" stroke-width="1.8"
        marker-end="url(#arr)"/>
  <text x="337.5" y="316.5" text-anchor="middle" font-size="11" fill="#6b7280">✗ fail</text>
  <line x1="550" y1="105" x2="618" y2="110"
        stroke="#374151" stroke-width="1.8" 
        marker-end="url(#arr)"/>
  
  <line x1="550" y1="195" x2="618" y2="200"
        stroke="#374151" stroke-width="1.8" 
        marker-end="url(#arr)"/>
  <rect x="570" y="185.5" width="36" height="18"
                   fill="#fafaf8" rx="3"/>
    <text x="584" y="199.5" text-anchor="middle" font-size="11" fill="#6b7280">read</text>
  <g filter="url(#rough)">
    <rect x="630" y="265" width="170" height="30" rx="6" ry="6"
          fill="#f3f4f6" stroke="#374151" stroke-width="2"/>
  </g>
  <text x="715" y="285" text-anchor="middle"
        font-size="14" font-weight="600" fill="#1f2937">Round Robin</text>
  
  <g filter="url(#rough)">
    <rect x="630" y="305" width="170" height="30" rx="6" ry="6"
          fill="#f3f4f6" stroke="#374151" stroke-width="2"/>
  </g>
  <text x="715" y="325" text-anchor="middle"
        font-size="14" font-weight="600" fill="#1f2937">Least Conn</text>
  
  <g filter="url(#rough)">
    <rect x="630" y="345" width="170" height="30" rx="6" ry="6"
          fill="#d1fae5" stroke="#065f46" stroke-width="2"/>
  </g>
  <text x="715" y="365" text-anchor="middle"
        font-size="14" font-weight="600" fill="#064e3b">Weighted</text>
  
  <g filter="url(#rough)">
    <rect x="630" y="385" width="170" height="30" rx="6" ry="6"
          fill="#f3f4f6" stroke="#374151" stroke-width="2"/>
  </g>
  <text x="715" y="405" text-anchor="middle"
        font-size="14" font-weight="600" fill="#1f2937">IP Hash</text>
  <text x="715" y="260" text-anchor="middle"
               font-size="12" fill="#374151">Algorithms</text></svg>